<svg width="120" height="64" viewBox="0 0 120 64" fill="none" xmlns="http://www.w3.org/2000/svg">
<path d="M47.9453 33.743V23.1113H52.4075V33.8982C52.4075 35.6443 53.3 36.8472 55.5117 36.8472C57.5682 36.8472 58.577 35.6055 58.577 33.8206V23.1113H63.0392V33.743C63.0392 37.8948 60.5559 40.4169 55.5117 40.4169C50.4674 40.4169 47.9453 37.9724 47.9453 33.743Z" fill="white"/>
<path d="M65.0957 27.1854H69.0535V28.9315H69.1311C70.1011 27.5346 71.3428 26.7974 73.1277 26.7974C75.9602 26.7974 77.6287 28.8151 77.6287 31.6864V40.0676H73.5157V32.54C73.5157 31.182 72.8173 30.2507 71.498 30.2507C70.1399 30.2507 69.2475 31.376 69.2475 32.9669V40.1064H65.1345V27.1854H65.0957Z" fill="white"/>
<path d="M79.7246 22.1025H83.8376V25.4395H79.7246V22.1025ZM79.7246 27.1856H83.8376V40.1066H79.7246V27.1856Z" fill="white"/>
<path d="M87.0569 36.692V30.5225H85.3496V27.1855H87.0569V23.1113H91.0535V27.1855H93.3816V30.5225H91.0535V35.7995C91.0535 36.8084 91.5967 37.0412 92.4891 37.0412C92.8384 37.0412 93.2264 37.0024 93.3816 37.0024V39.9901C93.0324 40.1065 92.2563 40.1841 91.1311 40.1841C88.7642 40.2617 87.0569 39.4857 87.0569 36.692Z" fill="white"/>
<path d="M95.9432 41.1542H97.3401C98.5429 41.1542 99.0474 40.6886 99.0474 39.7961C99.0474 39.2529 98.8146 38.4769 98.2713 37.1188L94.4688 27.1855H98.8145L100.561 32.6954C100.949 33.9371 101.375 35.6831 101.375 35.6831H101.414C101.414 35.6831 101.763 33.9759 102.152 32.6954L103.859 27.1855H107.972L103.51 40.2618C102.462 43.2883 101.259 44.336 98.6593 44.336H95.982V41.1542H95.9432Z" fill="white"/>
<path d="M113.598 28.1944C113.52 28.0004 113.404 27.8064 113.249 27.6512C113.094 27.496 112.938 27.3796 112.706 27.302C112.512 27.2243 112.279 27.1855 112.085 27.1855C111.891 27.1855 111.658 27.2243 111.464 27.302C111.27 27.3796 111.076 27.496 110.921 27.6512C110.765 27.8064 110.649 27.9616 110.571 28.1944C110.494 28.3884 110.455 28.6212 110.455 28.8152C110.455 29.048 110.494 29.242 110.571 29.4361C110.649 29.6301 110.765 29.8241 110.921 29.9793C111.076 30.1345 111.231 30.2509 111.464 30.3285C111.658 30.4061 111.891 30.4449 112.085 30.4449C112.279 30.4449 112.512 30.4061 112.706 30.3285C112.9 30.2509 113.094 30.1345 113.249 29.9793C113.404 29.8241 113.52 29.6689 113.598 29.4361C113.676 29.242 113.714 29.0092 113.714 28.8152C113.714 28.6212 113.676 28.3884 113.598 28.1944ZM113.171 29.4749C113.055 29.6689 112.9 29.8241 112.706 29.9405C112.512 30.0569 112.318 30.0957 112.085 30.0957C111.852 30.0957 111.658 30.0569 111.464 29.9405C111.27 29.8241 111.115 29.6689 110.998 29.4749C110.882 29.2808 110.843 29.0868 110.843 28.854C110.843 28.6212 110.882 28.4272 110.998 28.2332C111.115 28.0392 111.27 27.884 111.464 27.7676C111.658 27.6512 111.852 27.6124 112.085 27.6124C112.318 27.6124 112.512 27.6512 112.706 27.7676C112.9 27.884 113.055 28.0392 113.171 28.2332C113.288 28.4272 113.326 28.6212 113.326 28.854C113.326 29.0868 113.288 29.2808 113.171 29.4749Z" fill="white"/>
<path d="M112.666 28.8539C112.705 28.7763 112.744 28.6987 112.744 28.5823C112.744 28.4659 112.705 28.3883 112.666 28.3107C112.627 28.2331 112.55 28.1943 112.472 28.1555C112.394 28.1167 112.317 28.1167 112.278 28.1167H111.502V29.63H111.851V29.1255H112.2L112.472 29.63H112.821L112.511 29.0479C112.55 28.9703 112.627 28.8927 112.666 28.8539ZM111.851 28.3107H112.162C112.2 28.3107 112.239 28.3107 112.317 28.3495C112.356 28.3883 112.394 28.4271 112.394 28.5435C112.394 28.6211 112.356 28.6987 112.317 28.7375C112.278 28.7763 112.2 28.8151 112.162 28.8151H111.851V28.3107Z" fill="white"/>
<path d="M22.8945 51.443L38.3102 42.5545L32.3974 39.1457L26.3546 42.6281C26.3032 42.657 26.2451 42.6719 26.1862 42.6715C26.1272 42.6711 26.0693 42.6553 26.0183 42.6258C25.9673 42.5963 25.9248 42.5541 25.8951 42.5032C25.8654 42.4523 25.8494 42.3946 25.8489 42.3357V34.0569C25.8488 33.9383 25.88 33.8217 25.9394 33.719C25.9989 33.6163 26.0844 33.5312 26.1874 33.472L33.3662 29.3322C33.4177 29.3031 33.476 29.2881 33.5351 29.2884C33.5942 29.2887 33.6524 29.3044 33.7036 29.3339C33.7549 29.3634 33.7975 29.4057 33.8273 29.4567C33.8573 29.5077 33.8734 29.5655 33.874 29.6246V36.5894L39.7859 39.9981V22.2222L22.8945 31.9621V51.443Z" fill="#A6A6A6"/>
<path d="M24.3722 13.3335V20.1521L30.4119 23.6345C30.4627 23.6645 30.5048 23.7072 30.534 23.7583C30.5633 23.8095 30.5787 23.8675 30.5787 23.9264C30.5787 23.9853 30.5633 24.0433 30.534 24.0945C30.5048 24.1457 30.4627 24.1883 30.4119 24.2183L23.2331 28.3582C23.1301 28.4175 23.0134 28.4488 22.8946 28.4488C22.7757 28.4488 22.659 28.4175 22.556 28.3582L15.3762 24.2225C15.3254 24.1924 15.2833 24.1496 15.2541 24.0983C15.2249 24.047 15.2095 23.9891 15.2095 23.9301C15.2095 23.871 15.2249 23.8131 15.2541 23.7618C15.2833 23.7105 15.3254 23.6677 15.3762 23.6376L21.4158 20.1562V13.3335L6 22.222L22.8935 31.9619L39.787 22.222L24.3722 13.3335Z" fill="white"/>
<path d="M19.4334 42.6291L13.3907 39.1457L7.47876 42.5545L22.8935 51.443V31.9621L6 22.2222V39.9981L11.9129 36.5894V29.6236C11.9139 29.5647 11.9301 29.5072 11.96 29.4565C11.9899 29.4057 12.0325 29.3637 12.0835 29.3343C12.1346 29.3049 12.1924 29.2893 12.2513 29.2889C12.3103 29.2886 12.3683 29.3034 12.4197 29.3322L19.6037 33.472C19.7065 33.5313 19.7917 33.6165 19.851 33.7192C19.9103 33.8219 19.9414 33.9384 19.9412 34.0569V42.3357C19.941 42.395 19.9253 42.4531 19.8955 42.5044C19.8658 42.5557 19.8231 42.5984 19.7717 42.6281C19.7203 42.6578 19.6621 42.6735 19.6027 42.6737C19.5434 42.6739 19.485 42.6585 19.4334 42.6291Z" fill="#CCCCCC"/>
</svg>
